<svg xmlns="http://www.w3.org/2000/svg" xmlns:xlink="http://www.w3.org/1999/xlink" width="500" zoomAndPan="magnify" viewBox="0 0 375 374.999991" height="500" preserveAspectRatio="xMidYMid meet" version="1.0"><defs><g/><clipPath id="a28266de34"><path d="M 65.417969 148.964844 L 134 148.964844 L 134 208 L 65.417969 208 Z M 65.417969 148.964844 " clip-rule="nonzero"/></clipPath><clipPath id="5ef4633b41"><path d="M 89 211 L 100 211 L 100 220.964844 L 89 220.964844 Z M 89 211 " clip-rule="nonzero"/></clipPath><clipPath id="3ac118e614"><path d="M 112 211 L 123 211 L 123 220.964844 L 112 220.964844 Z M 112 211 " clip-rule="nonzero"/></clipPath></defs><g clip-path="url(#a28266de34)"><path fill="#000000" d="M 124.511719 201.332031 L 90.472656 201.332031 C 90.078125 201.34375 89.699219 201.28125 89.332031 201.140625 C 88.964844 201 88.640625 200.792969 88.355469 200.519531 C 88.074219 200.246094 87.855469 199.929688 87.703125 199.570312 C 87.546875 199.210938 87.472656 198.832031 87.472656 198.441406 C 87.472656 198.050781 87.546875 197.675781 87.703125 197.3125 C 87.855469 196.953125 88.074219 196.636719 88.355469 196.363281 C 88.640625 196.09375 88.964844 195.886719 89.332031 195.746094 C 89.699219 195.605469 90.078125 195.539062 90.472656 195.554688 L 124.511719 195.554688 C 124.886719 195.554688 125.25 195.492188 125.605469 195.371094 C 125.957031 195.246094 126.28125 195.066406 126.574219 194.835938 C 126.863281 194.601562 127.109375 194.328125 127.308594 194.011719 C 127.503906 193.695312 127.644531 193.355469 127.726562 192.992188 L 133.917969 165.269531 C 133.972656 165.027344 133.996094 164.785156 133.996094 164.542969 C 133.992188 164.296875 133.964844 164.054688 133.910156 163.816406 C 133.851562 163.578125 133.769531 163.347656 133.664062 163.128906 C 133.554688 162.90625 133.425781 162.703125 133.269531 162.511719 C 133.117188 162.320312 132.941406 162.148438 132.75 161.996094 C 132.558594 161.84375 132.351562 161.714844 132.128906 161.609375 C 131.90625 161.503906 131.675781 161.425781 131.433594 161.371094 C 131.195312 161.316406 130.953125 161.289062 130.707031 161.289062 L 84.28125 161.289062 C 84.042969 161.289062 83.8125 161.3125 83.578125 161.359375 L 81.296875 151.503906 C 81.214844 151.140625 81.074219 150.804688 80.875 150.492188 C 80.675781 150.179688 80.429688 149.90625 80.140625 149.675781 C 79.847656 149.445312 79.527344 149.269531 79.175781 149.148438 C 78.824219 149.027344 78.464844 148.964844 78.089844 148.964844 L 68.804688 148.964844 C 68.367188 148.964844 67.949219 149.050781 67.546875 149.214844 C 67.144531 149.382812 66.789062 149.617188 66.480469 149.925781 C 66.171875 150.230469 65.933594 150.585938 65.765625 150.988281 C 65.601562 151.386719 65.515625 151.804688 65.515625 152.238281 C 65.515625 152.671875 65.601562 153.089844 65.765625 153.492188 C 65.933594 153.894531 66.171875 154.246094 66.480469 154.554688 C 66.789062 154.859375 67.144531 155.097656 67.546875 155.261719 C 67.949219 155.429688 68.367188 155.511719 68.804688 155.511719 L 75.472656 155.511719 L 83.867188 191.699219 C 83.191406 192.351562 82.625 193.089844 82.167969 193.910156 C 81.714844 194.734375 81.390625 195.601562 81.195312 196.519531 C 81.003906 197.4375 80.949219 198.363281 81.03125 199.296875 C 81.117188 200.234375 81.335938 201.132812 81.691406 202.003906 C 82.046875 202.871094 82.519531 203.671875 83.113281 204.398438 C 83.710938 205.125 84.398438 205.75 85.179688 206.273438 C 85.960938 206.796875 86.804688 207.195312 87.707031 207.46875 C 88.609375 207.742188 89.53125 207.878906 90.472656 207.875 L 124.511719 207.875 C 124.949219 207.875 125.367188 207.792969 125.773438 207.625 C 126.175781 207.460938 126.53125 207.222656 126.839844 206.917969 C 127.148438 206.609375 127.382812 206.257812 127.550781 205.855469 C 127.71875 205.453125 127.800781 205.039062 127.800781 204.601562 C 127.800781 204.167969 127.71875 203.75 127.550781 203.351562 C 127.382812 202.949219 127.148438 202.597656 126.839844 202.289062 C 126.53125 201.980469 126.175781 201.746094 125.773438 201.578125 C 125.367188 201.414062 124.949219 201.332031 124.511719 201.332031 Z M 124.511719 201.332031 " fill-opacity="1" fill-rule="nonzero"/></g><g clip-path="url(#5ef4633b41)"><path fill="#000000" d="M 99.753906 216.058594 C 99.753906 216.378906 99.722656 216.699219 99.660156 217.015625 C 99.597656 217.332031 99.503906 217.636719 99.378906 217.9375 C 99.253906 218.234375 99.105469 218.515625 98.925781 218.785156 C 98.742188 219.054688 98.539062 219.300781 98.308594 219.527344 C 98.082031 219.757812 97.832031 219.960938 97.5625 220.140625 C 97.292969 220.320312 97.007812 220.46875 96.710938 220.59375 C 96.410156 220.714844 96.101562 220.808594 95.785156 220.871094 C 95.46875 220.933594 95.148438 220.964844 94.824219 220.964844 C 94.5 220.964844 94.179688 220.933594 93.859375 220.871094 C 93.542969 220.808594 93.234375 220.714844 92.933594 220.59375 C 92.636719 220.46875 92.351562 220.320312 92.082031 220.140625 C 91.8125 219.960938 91.5625 219.757812 91.335938 219.527344 C 91.105469 219.300781 90.902344 219.054688 90.722656 218.785156 C 90.542969 218.515625 90.390625 218.234375 90.265625 217.9375 C 90.140625 217.636719 90.046875 217.332031 89.984375 217.015625 C 89.921875 216.699219 89.890625 216.378906 89.890625 216.058594 C 89.890625 215.734375 89.921875 215.417969 89.984375 215.101562 C 90.046875 214.785156 90.140625 214.476562 90.265625 214.179688 C 90.390625 213.882812 90.542969 213.597656 90.722656 213.332031 C 90.902344 213.0625 91.105469 212.8125 91.335938 212.585938 C 91.5625 212.359375 91.8125 212.15625 92.082031 211.976562 C 92.351562 211.796875 92.636719 211.644531 92.933594 211.523438 C 93.234375 211.398438 93.542969 211.304688 93.859375 211.242188 C 94.179688 211.179688 94.5 211.148438 94.824219 211.148438 C 95.148438 211.148438 95.46875 211.179688 95.785156 211.242188 C 96.101562 211.304688 96.410156 211.398438 96.710938 211.523438 C 97.007812 211.644531 97.292969 211.796875 97.5625 211.976562 C 97.832031 212.15625 98.082031 212.359375 98.308594 212.585938 C 98.539062 212.8125 98.742188 213.0625 98.925781 213.332031 C 99.105469 213.597656 99.253906 213.882812 99.378906 214.179688 C 99.503906 214.476562 99.597656 214.785156 99.660156 215.101562 C 99.722656 215.417969 99.753906 215.734375 99.753906 216.058594 Z M 99.753906 216.058594 " fill-opacity="1" fill-rule="nonzero"/></g><g clip-path="url(#3ac118e614)"><path fill="#000000" d="M 122.773438 216.058594 C 122.773438 216.378906 122.742188 216.699219 122.679688 217.015625 C 122.617188 217.332031 122.523438 217.636719 122.398438 217.9375 C 122.273438 218.234375 122.121094 218.515625 121.941406 218.785156 C 121.761719 219.054688 121.558594 219.300781 121.328125 219.527344 C 121.101562 219.757812 120.851562 219.960938 120.582031 220.140625 C 120.3125 220.320312 120.027344 220.46875 119.730469 220.59375 C 119.429688 220.714844 119.121094 220.808594 118.804688 220.871094 C 118.484375 220.933594 118.164062 220.964844 117.839844 220.964844 C 117.515625 220.964844 117.195312 220.933594 116.878906 220.871094 C 116.5625 220.808594 116.253906 220.714844 115.953125 220.59375 C 115.65625 220.46875 115.371094 220.320312 115.101562 220.140625 C 114.832031 219.960938 114.582031 219.757812 114.351562 219.527344 C 114.125 219.300781 113.917969 219.054688 113.738281 218.785156 C 113.558594 218.515625 113.40625 218.234375 113.285156 217.9375 C 113.160156 217.636719 113.066406 217.332031 113.003906 217.015625 C 112.941406 216.699219 112.910156 216.378906 112.910156 216.058594 C 112.910156 215.734375 112.941406 215.417969 113.003906 215.101562 C 113.066406 214.785156 113.160156 214.476562 113.285156 214.179688 C 113.40625 213.882812 113.558594 213.597656 113.738281 213.332031 C 113.917969 213.0625 114.125 212.8125 114.351562 212.585938 C 114.582031 212.359375 114.832031 212.15625 115.101562 211.976562 C 115.371094 211.796875 115.65625 211.644531 115.953125 211.523438 C 116.253906 211.398438 116.5625 211.304688 116.878906 211.242188 C 117.195312 211.179688 117.515625 211.148438 117.839844 211.148438 C 118.164062 211.148438 118.484375 211.179688 118.804688 211.242188 C 119.121094 211.304688 119.429688 211.398438 119.730469 211.523438 C 120.027344 211.644531 120.3125 211.796875 120.582031 211.976562 C 120.851562 212.15625 121.101562 212.359375 121.328125 212.585938 C 121.558594 212.8125 121.761719 213.0625 121.941406 213.332031 C 122.121094 213.597656 122.273438 213.882812 122.398438 214.179688 C 122.523438 214.476562 122.617188 214.785156 122.679688 215.101562 C 122.742188 215.417969 122.773438 215.734375 122.773438 216.058594 Z M 122.773438 216.058594 " fill-opacity="1" fill-rule="nonzero"/></g><g fill="#000000" fill-opacity="1"><g transform="translate(143.160098, 204.87698)"><g><path d="M 4.109375 0 L 4.109375 -42.234375 L 31.6875 -42.234375 L 31.6875 -36.03125 L 11.828125 -36.03125 L 11.828125 -24.4375 L 29.875 -24.4375 L 29.875 -18.40625 L 11.828125 -18.40625 L 11.828125 -6.21875 L 31.6875 -6.21875 L 31.6875 0 Z M 4.109375 0 "/></g></g></g><g fill="#000000" fill-opacity="1"><g transform="translate(175.318378, 204.87698)"><g><path d="M 3.921875 0 L 3.921875 -29.9375 L 10.734375 -29.9375 L 11.40625 -25.890625 C 12.375 -27.335938 13.648438 -28.492188 15.234375 -29.359375 C 16.828125 -30.222656 18.671875 -30.65625 20.765625 -30.65625 C 25.390625 -30.65625 28.664062 -28.863281 30.59375 -25.28125 C 31.675781 -26.9375 33.132812 -28.242188 34.96875 -29.203125 C 36.800781 -30.171875 38.800781 -30.65625 40.96875 -30.65625 C 44.875 -30.65625 47.875 -29.488281 49.96875 -27.15625 C 52.0625 -24.820312 53.109375 -21.398438 53.109375 -16.890625 L 53.109375 0 L 45.375 0 L 45.375 -16.171875 C 45.375 -18.742188 44.878906 -20.710938 43.890625 -22.078125 C 42.910156 -23.453125 41.394531 -24.140625 39.34375 -24.140625 C 37.25 -24.140625 35.566406 -23.375 34.296875 -21.84375 C 33.035156 -20.3125 32.40625 -18.179688 32.40625 -15.453125 L 32.40625 0 L 24.6875 0 L 24.6875 -16.171875 C 24.6875 -18.742188 24.179688 -20.710938 23.171875 -22.078125 C 22.160156 -23.453125 20.613281 -24.140625 18.53125 -24.140625 C 16.476562 -24.140625 14.816406 -23.375 13.546875 -21.84375 C 12.273438 -20.3125 11.640625 -18.179688 11.640625 -15.453125 L 11.640625 0 Z M 3.921875 0 "/></g></g></g><g fill="#000000" fill-opacity="1"><g transform="translate(229.136916, 204.87698)"><g><path d="M 14.234375 0.71875 C 11.660156 0.71875 9.550781 0.304688 7.90625 -0.515625 C 6.257812 -1.335938 5.03125 -2.429688 4.21875 -3.796875 C 3.414062 -5.171875 3.015625 -6.679688 3.015625 -8.328125 C 3.015625 -11.097656 4.097656 -13.347656 6.265625 -15.078125 C 8.441406 -16.816406 11.703125 -17.6875 16.046875 -17.6875 L 23.65625 -17.6875 L 23.65625 -18.40625 C 23.65625 -20.457031 23.070312 -21.960938 21.90625 -22.921875 C 20.738281 -23.890625 19.289062 -24.375 17.5625 -24.375 C 15.988281 -24.375 14.617188 -24 13.453125 -23.25 C 12.285156 -22.507812 11.5625 -21.414062 11.28125 -19.96875 L 3.734375 -19.96875 C 3.941406 -22.144531 4.675781 -24.035156 5.9375 -25.640625 C 7.207031 -27.253906 8.847656 -28.492188 10.859375 -29.359375 C 12.867188 -30.222656 15.125 -30.65625 17.625 -30.65625 C 21.882812 -30.65625 25.238281 -29.585938 27.6875 -27.453125 C 30.144531 -25.328125 31.375 -22.3125 31.375 -18.40625 L 31.375 0 L 24.796875 0 L 24.078125 -4.828125 C 23.191406 -3.210938 21.953125 -1.882812 20.359375 -0.84375 C 18.773438 0.195312 16.734375 0.71875 14.234375 0.71875 Z M 15.984375 -5.3125 C 18.203125 -5.3125 19.921875 -6.035156 21.140625 -7.484375 C 22.367188 -8.929688 23.144531 -10.722656 23.46875 -12.859375 L 16.890625 -12.859375 C 14.835938 -12.859375 13.367188 -12.484375 12.484375 -11.734375 C 11.597656 -10.992188 11.15625 -10.078125 11.15625 -8.984375 C 11.15625 -7.816406 11.597656 -6.910156 12.484375 -6.265625 C 13.367188 -5.628906 14.535156 -5.3125 15.984375 -5.3125 Z M 15.984375 -5.3125 "/></g></g></g><g fill="#000000" fill-opacity="1"><g transform="translate(261.234859, 204.87698)"><g><path d="M 3.921875 0 L 3.921875 -29.9375 L 10.796875 -29.9375 L 11.53125 -24.3125 C 12.613281 -26.25 14.085938 -27.789062 15.953125 -28.9375 C 17.828125 -30.082031 20.03125 -30.65625 22.5625 -30.65625 L 22.5625 -22.515625 L 20.390625 -22.515625 C 18.703125 -22.515625 17.191406 -22.25 15.859375 -21.71875 C 14.535156 -21.195312 13.5 -20.289062 12.75 -19 C 12.007812 -17.71875 11.640625 -15.929688 11.640625 -13.640625 L 11.640625 0 Z M 3.921875 0 "/></g></g></g><g fill="#000000" fill-opacity="1"><g transform="translate(282.412172, 204.87698)"><g><path d="M 17.265625 0 C 14.117188 0 11.597656 -0.765625 9.703125 -2.296875 C 7.816406 -3.828125 6.875 -6.539062 6.875 -10.4375 L 6.875 -23.46875 L 1.75 -23.46875 L 1.75 -29.9375 L 6.875 -29.9375 L 7.78125 -37.953125 L 14.609375 -37.953125 L 14.609375 -29.9375 L 22.6875 -29.9375 L 22.6875 -23.46875 L 14.609375 -23.46875 L 14.609375 -10.375 C 14.609375 -8.925781 14.914062 -7.929688 15.53125 -7.390625 C 16.15625 -6.847656 17.234375 -6.578125 18.765625 -6.578125 L 22.515625 -6.578125 L 22.515625 0 Z M 17.265625 0 "/></g></g></g></svg>